<svg width="24" height="24" viewBox="0 0 24 24" fill="none" xmlns="http://www.w3.org/2000/svg">
<circle cx="12" cy="12" r="12" fill="#F26B50"/>
<path d="M18.9644 9.11684C18.9316 8.37282 18.8113 7.86131 18.6389 7.41809C18.4611 6.94761 18.1876 6.5264 17.8292 6.17624C17.4791 5.82063 17.0551 5.54431 16.59 5.36928C16.1442 5.19693 15.6354 5.07661 14.8914 5.04381C14.1418 5.00823 13.9039 5 12.0027 5C10.1016 5 9.86363 5.00823 9.11684 5.04103C8.37282 5.07384 7.86131 5.19426 7.41819 5.36651C6.94761 5.54431 6.5264 5.81785 6.17624 6.17624C5.82063 6.5264 5.54442 6.95039 5.36928 7.41541C5.19693 7.86131 5.07661 8.37004 5.04381 9.11406C5.00823 9.86363 5 10.1016 5 12.0027C5 13.9039 5.00823 14.1418 5.04103 14.8886C5.07384 15.6326 5.19426 16.1441 5.36661 16.5874C5.54442 17.0578 5.82063 17.4791 6.17624 17.8292C6.5264 18.1848 6.95039 18.4611 7.41541 18.6362C7.86131 18.8085 8.37004 18.9288 9.11416 18.9616C9.86085 18.9946 10.0989 19.0027 12.0001 19.0027C13.9012 19.0027 14.1391 18.9946 14.8859 18.9616C15.63 18.9288 16.1415 18.8085 16.5846 18.6362C17.5256 18.2723 18.2697 17.5283 18.6335 16.5874C18.8057 16.1415 18.9262 15.6326 18.959 14.8886C18.9918 14.1418 19 13.9039 19 12.0027C19 10.1016 18.9972 9.86363 18.9644 9.11684ZM17.7034 14.8339C17.6733 15.5178 17.5584 15.887 17.4627 16.1332C17.2274 16.7433 16.7433 17.2274 16.1332 17.4627C15.887 17.5584 15.5151 17.6733 14.8339 17.7033C14.0953 17.7362 13.8738 17.7444 12.0055 17.7444C10.1372 17.7444 9.91289 17.7362 9.17699 17.7033C8.49313 17.6733 8.12385 17.5584 7.87766 17.4627C7.57409 17.3505 7.29777 17.1727 7.07348 16.9402C6.84097 16.7131 6.66317 16.4396 6.55097 16.136C6.45523 15.8898 6.34037 15.5178 6.31034 14.8367C6.27743 14.0981 6.26931 13.8765 6.26931 12.0082C6.26931 10.1398 6.27743 9.91556 6.31034 9.17977C6.34037 8.49591 6.45523 8.12663 6.55097 7.88044C6.66317 7.57676 6.84097 7.30055 7.07626 7.07616C7.30322 6.84364 7.57676 6.66584 7.88044 6.55375C8.12663 6.45801 8.49869 6.34314 9.17977 6.31301C9.91834 6.28021 10.14 6.27198 12.0082 6.27198C13.8793 6.27198 14.1008 6.28021 14.8367 6.31301C15.5205 6.34314 15.8898 6.45801 16.136 6.55375C16.4396 6.66584 16.7159 6.84364 16.9402 7.07616C17.1727 7.30322 17.3505 7.57676 17.4627 7.88044C17.5584 8.12663 17.6733 8.49858 17.7034 9.17977C17.7362 9.91834 17.7445 10.1398 17.7445 12.0082C17.7445 13.8765 17.7362 14.0953 17.7034 14.8339Z" fill="white"/>
<path d="M12.0027 8.40586C10.0169 8.40586 8.40563 10.017 8.40563 12.003C8.40563 13.9889 10.0169 15.6001 12.0027 15.6001C13.9887 15.6001 15.5998 13.9889 15.5998 12.003C15.5998 10.017 13.9887 8.40586 12.0027 8.40586ZM12.0027 14.3363C10.7144 14.3363 9.66938 13.2914 9.66938 12.003C9.66938 10.7145 10.7144 9.66961 12.0027 9.66961C13.2912 9.66961 14.3361 10.7145 14.3361 12.003C14.3361 13.2914 13.2912 14.3363 12.0027 14.3363Z" fill="white"/>
<path d="M16.5821 8.26288C16.5821 8.72662 16.2061 9.10264 15.7423 9.10264C15.2785 9.10264 14.9025 8.72662 14.9025 8.26288C14.9025 7.79903 15.2785 7.42312 15.7423 7.42312C16.2061 7.42312 16.5821 7.79903 16.5821 8.26288Z" fill="white"/>
</svg>
