<svg width="24" height="24" viewBox="0 0 24 24" fill="none" xmlns="http://www.w3.org/2000/svg">
<circle cx="12" cy="12" r="12" fill="#F26B50"/>
<path d="M9.03277 9.17721H6.41723C6.30115 9.17721 6.20709 9.27131 6.20709 9.38735V17.7899C6.20709 17.906 6.30115 18.0001 6.41723 18.0001H9.03277C9.14885 18.0001 9.24291 17.906 9.24291 17.7899V9.38735C9.24291 9.27131 9.14885 9.17721 9.03277 9.17721Z" fill="white"/>
<path d="M7.72593 5C6.77424 5 6 5.7734 6 6.72403C6 7.67509 6.77424 8.44878 7.72593 8.44878C8.67685 8.44878 9.45046 7.67505 9.45046 6.72403C9.45051 5.7734 8.67685 5 7.72593 5Z" fill="white"/>
<path d="M15.6856 8.96819C14.6351 8.96819 13.8585 9.41979 13.3875 9.93291V9.38717C13.3875 9.27113 13.2935 9.17703 13.1774 9.17703H10.6725C10.5565 9.17703 10.4624 9.27113 10.4624 9.38717V17.7898C10.4624 17.9058 10.5565 17.9999 10.6725 17.9999H13.2824C13.3984 17.9999 13.4925 17.9058 13.4925 17.7898V13.6324C13.4925 12.2315 13.873 11.6857 14.8496 11.6857C15.9132 11.6857 15.9977 12.5607 15.9977 13.7045V17.7898C15.9977 17.9059 16.0917 17.9999 16.2078 17.9999H18.8186C18.9347 17.9999 19.0287 17.9059 19.0287 17.7898V13.1808C19.0287 11.0977 18.6315 8.96819 15.6856 8.96819Z" fill="white"/>
</svg>
