<svg width="24" height="24" viewBox="0 0 24 24" fill="none" xmlns="http://www.w3.org/2000/svg">
<circle cx="12" cy="12" r="12" fill="#F26B50"/>
<path d="M19 8.30223C18.4794 8.52308 17.9246 8.66946 17.3462 8.74054C17.9412 8.397 18.3954 7.85715 18.6089 7.20646C18.0541 7.52631 17.4416 7.75223 16.7889 7.87831C16.2621 7.33592 15.5114 7 14.6924 7C13.1034 7 11.8241 8.24723 11.8241 9.77623C11.8241 9.99623 11.8434 10.2078 11.8906 10.4092C9.5045 10.2966 7.39313 9.19069 5.97475 7.506C5.72712 7.92146 5.58188 8.397 5.58188 8.90892C5.58188 9.87015 6.09375 10.7222 6.85675 11.2155C6.39562 11.2071 5.94325 11.0776 5.56 10.8737C5.56 10.8822 5.56 10.8932 5.56 10.9042C5.56 12.2529 6.55487 13.3732 7.8595 13.6313C7.62587 13.6931 7.37125 13.7227 7.107 13.7227C6.92325 13.7227 6.73775 13.7125 6.56362 13.6753C6.9355 14.7745 7.99075 15.5825 9.2455 15.6088C8.269 16.3475 7.02912 16.7925 5.68688 16.7925C5.4515 16.7925 5.22575 16.7824 5 16.7545C6.27137 17.5473 7.77813 18 9.403 18C14.6845 18 17.572 13.7692 17.572 10.102C17.572 9.97931 17.5676 9.86085 17.5615 9.74323C18.1311 9.35231 18.6097 8.86408 19 8.30223Z" fill="white"/>
</svg>
