<svg width="39" height="39" viewBox="0 0 39 39" fill="none" xmlns="http://www.w3.org/2000/svg">
<rect y="0.552292" width="39" height="38.2408" fill="#FBFBFB"/>
<path d="M27.749 12.8874L13.8885 26.7478C13.6635 26.9729 13.3929 27.1339 13.1362 27.1955C12.8796 27.2571 12.6579 27.2143 12.52 27.0764C12.3821 26.9384 12.3392 26.7168 12.4008 26.4601C12.4624 26.2035 12.6235 25.9329 12.8485 25.7078L26.7078 11.8485C26.9329 11.6235 27.2035 11.4624 27.4601 11.4008C27.7168 11.3392 27.9384 11.3821 28.0764 11.52C28.2143 11.6579 28.2571 11.8796 28.1955 12.1362C28.1339 12.3929 27.9729 12.6635 27.7478 12.8885L27.749 12.8874Z" fill="#F26B50"/>
<path d="M13.8876 11.8474L27.748 25.7078C27.973 25.9328 28.1341 26.2035 28.1957 26.4601C28.2573 26.7168 28.2144 26.9384 28.0765 27.0763C27.9386 27.2143 27.7169 27.2571 27.4603 27.1955C27.2036 27.1339 26.933 26.9729 26.708 26.7478L12.8487 12.8885C12.6237 12.6635 12.4626 12.3929 12.401 12.1362C12.3394 11.8796 12.3823 11.6579 12.5202 11.52C12.6581 11.3821 12.8798 11.3392 13.1364 11.4008C13.3931 11.4624 13.6637 11.6235 13.8887 11.8485L13.8876 11.8474Z" fill="#F26B50"/>
</svg>
